<svg width="24" height="24" xmlns="http://www.w3.org/2000/svg" xmlns:xlink="http://www.w3.org/1999/xlink" xml:space="preserve" overflow="hidden"><g><path d="M5 21C4.45 21 3.97917 20.8042 3.5875 20.4125 3.19583 20.0208 3 19.55 3 19L3 5C3 4.45 3.19583 3.97917 3.5875 3.5875 3.97917 3.19583 4.45 3 5 3L19 3C19.55 3 20.0208 3.19583 20.4125 3.5875 20.8042 3.97917 21 4.45 21 5L21 7 19 7 19 5 5 5 5 19 19 19 19 17 21 17 21 19C21 19.55 20.8042 20.0208 20.4125 20.4125 20.0208 20.8042 19.55 21 19 21L5 21ZM17 17 15.6 15.6 18.175 13 9 13 9 11 18.175 11 15.6 8.4 17 7 22 12 17 17Z" fill="#E7E6E6"/></g></svg>